<svg width="25" height="26" viewBox="0 0 25 26" fill="none" xmlns="http://www.w3.org/2000/svg">
<path d="M12.5159 0.904765C14.6868 0.904765 16.8577 0.902108 19.0278 0.905651C22.4259 0.910967 24.992 3.47837 24.9964 6.88208C25.0009 10.618 24.9929 14.3548 25 18.0908C25.0026 19.7111 24.4364 21.087 23.2943 22.2307C22.6155 22.9093 21.9421 23.5941 21.2563 24.2657C20.1495 25.3491 18.8186 25.9002 17.2662 25.9011C13.4862 25.902 9.70522 25.9073 5.92517 25.9002C2.5855 25.894 0.00875649 23.3115 0.00432605 19.9654C-0.00187657 15.5942 -0.000990478 11.2231 0.00432605 6.85196C0.00875649 3.47926 2.58196 0.913625 5.95884 0.907423C8.14482 0.902108 10.3308 0.904765 12.5159 0.904765ZM22.9912 17.2199C23.0169 17.1349 23.0391 17.0941 23.0391 17.0534C23.0391 13.538 23.0772 10.0227 23.0214 6.50911C22.9903 4.52996 21.2341 2.87506 19.2564 2.86708C14.7816 2.84936 10.3069 2.85468 5.83213 2.87328C5.38465 2.87506 4.91591 2.96985 4.49413 3.12311C2.88677 3.70517 1.95992 5.14125 1.95904 6.99814C1.95638 11.3108 1.95992 15.6235 1.95904 19.9353C1.95904 22.2271 3.6745 23.9458 5.95972 23.9449C9.25331 23.9432 12.546 23.9449 15.8396 23.9458C15.9832 23.9458 16.1267 23.9458 16.3137 23.9458C16.3137 23.4754 16.3004 23.0511 16.3163 22.6276C16.3465 21.8178 16.2924 20.9886 16.4528 20.2037C16.8063 18.4673 18.4102 17.2447 20.216 17.2226C21.1428 17.2111 22.0697 17.2199 22.9912 17.2199ZM18.287 23.7589C19.563 23.5357 22.7431 20.326 22.8353 19.2008C21.8792 19.2008 20.9196 19.1415 19.9706 19.2177C19.0446 19.2921 18.357 20.0221 18.2994 20.9488C18.2427 21.8728 18.287 22.8039 18.287 23.7589Z" fill="white"/>
<path d="M12.5005 8.61767C10.6264 8.61767 8.75235 8.61944 6.87828 8.61679C6.29878 8.6159 5.92751 8.35987 5.79636 7.88944C5.62358 7.26841 6.08169 6.67573 6.7684 6.66776C7.9345 6.65447 9.0997 6.66156 10.2658 6.66156C12.8922 6.66156 15.5194 6.65978 18.1458 6.66599C19.0124 6.66776 19.5112 7.44294 19.0992 8.13484C18.8812 8.50162 18.5383 8.62299 18.1227 8.62122C16.2487 8.61413 14.3746 8.61767 12.5005 8.61767Z" fill="white"/>
<path d="M12.4998 14.3823C10.7001 14.3823 8.89959 14.3823 7.09994 14.3823C6.96703 14.3823 6.83412 14.3877 6.70209 14.3779C6.1536 14.3354 5.75841 13.9181 5.76372 13.3928C5.76904 12.8665 6.16867 12.4466 6.7207 12.4307C7.36932 12.4121 8.01882 12.4245 8.66832 12.4245C11.8255 12.4236 14.9826 12.4245 18.1406 12.4209C18.5571 12.42 18.8947 12.5556 19.1056 12.9259C19.297 13.2625 19.2837 13.6072 19.0728 13.9314C18.8512 14.2734 18.5181 14.3832 18.1211 14.3815C16.247 14.3753 14.3738 14.3788 12.4998 14.3788C12.4998 14.3806 12.4998 14.3815 12.4998 14.3823Z" fill="white"/>
<path d="M9.66605 18.1844C10.5654 18.1844 11.4648 18.1809 12.3642 18.1853C13.0412 18.1889 13.4824 18.5884 13.4736 19.1776C13.4656 19.7508 13.035 20.1379 12.3801 20.1397C10.5371 20.1441 8.69401 20.1441 6.85007 20.1397C6.19347 20.1379 5.76904 19.7516 5.76372 19.1731C5.7584 18.5982 6.18993 18.1933 6.83412 18.1889C7.7778 18.1818 8.72148 18.1871 9.66517 18.1871C9.66605 18.1862 9.66605 18.1853 9.66605 18.1844Z" fill="white"/>
</svg>
