<svg width="26" height="26" viewBox="0 0 26 26" fill="none" xmlns="http://www.w3.org/2000/svg">
<path d="M25.82 24.8053C24.3228 21.313 22.822 17.8218 21.3334 14.3261C21.1436 13.8801 20.8529 13.6741 20.3653 13.6858C19.5743 13.7041 18.7823 13.6909 17.9908 13.6909C17.8944 13.6909 17.7975 13.6909 17.659 13.6909C17.7341 13.5518 17.7889 13.46 17.8356 13.3641C18.2207 12.5701 18.6357 11.7892 18.9812 10.9785C19.6672 9.37063 19.9554 7.70646 19.6799 5.94996C19.1329 2.45876 16.5722 0.244103 13.4849 0.0228908C11.0379 -0.152658 8.97389 0.67638 7.51927 2.68708C6.07124 4.68915 5.79473 6.95607 6.35892 9.33055C6.70342 10.7816 7.35285 12.1135 8.07636 13.4098C8.12253 13.4925 8.16261 13.5777 8.22045 13.6909C7.27878 13.6909 6.38632 13.701 5.49437 13.6868C5.0281 13.6792 4.7389 13.8761 4.56335 14.3048C4.24168 15.0907 3.8987 15.8675 3.56434 16.6478C2.4182 19.3216 1.27358 21.9955 0.124898 24.6678C0.0142918 24.925 -0.0750048 25.1924 0.0939485 25.4374C0.211658 25.6079 0.402428 25.7271 0.560727 25.8692C8.8161 25.8692 17.0715 25.8692 25.3263 25.8692C25.5115 25.684 25.6972 25.4983 25.8824 25.3131C25.8824 25.1782 25.8824 25.0437 25.8824 24.9088C25.8611 24.8743 25.8357 24.8418 25.82 24.8053ZM8.06165 9.77602C7.45281 8.04589 7.44367 6.32084 8.15145 4.62522C9.13016 2.27966 11.3905 1.34661 13.3885 1.54449C15.9248 1.79563 17.7295 3.54808 18.1578 6.056C18.4368 7.69073 18.1141 9.21385 17.4672 10.7009C16.5377 12.837 15.2602 14.7614 13.8771 16.6219C13.5818 17.0187 13.2728 17.4053 12.9476 17.8259C11.8415 16.4504 10.839 15.0597 9.94296 13.5924C9.19967 12.3773 8.53603 11.1246 8.06165 9.77602ZM3.84339 19.862C4.47862 18.38 5.11689 16.8989 5.74602 15.4139C5.81249 15.2576 5.89062 15.2054 6.06008 15.2069C7.02763 15.2155 7.99518 15.2079 8.96273 15.2165C9.05558 15.2175 9.18394 15.2652 9.23468 15.3352C9.61724 15.8675 9.98508 16.4109 10.356 16.9512C10.3742 16.9781 10.3829 17.0116 10.4011 17.0542C8.13877 18.212 5.882 19.3668 3.62472 20.5221C3.61 20.5084 3.59529 20.4942 3.58058 20.4805C3.66835 20.2745 3.75511 20.068 3.84339 19.862ZM1.92352 24.3415C2.14929 23.8164 2.36391 23.3085 2.58969 22.8052C2.61607 22.7469 2.70131 22.7088 2.76625 22.6753C4.18029 21.9493 5.59584 21.2263 7.00886 20.4977C7.12048 20.4399 7.19151 20.4297 7.28994 20.5287C8.52538 21.7712 9.76539 23.0087 11.0039 24.2482C11.0206 24.2649 11.0303 24.2888 11.0632 24.3415C8.00685 24.3415 4.98497 24.3415 1.92352 24.3415ZM14.592 24.3435C14.1475 24.3542 13.6539 24.4562 13.2708 24.2994C12.8964 24.1462 12.6335 23.7195 12.324 23.41C11.1505 22.238 9.97848 21.0654 8.80595 19.8924C8.7471 19.8336 8.69078 19.7727 8.60554 19.6834C9.53555 19.208 10.4392 18.7458 11.3474 18.2815C11.6624 18.6641 11.9628 19.037 12.2723 19.4028C12.7107 19.9218 13.2048 19.934 13.6209 19.3896C14.6209 18.0796 15.6001 16.7533 16.5778 15.4261C16.6889 15.2754 16.7889 15.2033 16.9832 15.2059C17.9345 15.217 18.8858 15.213 19.8366 15.2089C19.9731 15.2084 20.0624 15.2277 20.1258 15.3768C20.8346 17.0481 21.552 18.7158 22.2664 20.3846C22.2761 20.4064 22.2791 20.4312 22.2898 20.4728C22.1812 20.5327 22.0736 20.5946 21.9635 20.6514C19.6662 21.8458 17.3698 23.0411 15.0689 24.2289C14.9273 24.3014 14.7528 24.3395 14.592 24.3435ZM18.2643 24.3364C18.2587 24.3233 18.2531 24.3101 18.2476 24.2969C19.792 23.4942 21.3364 22.6921 22.9062 21.8762C23.2598 22.7012 23.6054 23.5074 23.961 24.3364C22.0396 24.3364 20.1517 24.3364 18.2643 24.3364Z" fill="white"/>
</svg>
