<svg width="24" height="28" viewBox="0 0 24 28" fill="none" xmlns="http://www.w3.org/2000/svg">
<path d="M22.0842 26.8681C15.5635 26.8681 9.04215 26.8681 2.52147 26.8681C1.31103 26.4206 1.00318 25.9718 1.00318 24.6535C1.00318 19.3731 1.00445 14.0933 1 8.81291C0.999368 8.42825 1.09204 8.08486 1.285 7.75289C2.39008 5.84486 3.4977 3.93811 4.57993 2.01675C4.87699 1.48928 5.21975 1.05322 5.81577 0.869141C10.1403 0.869141 14.4654 0.869141 18.7899 0.869141C19.3871 1.05131 19.7293 1.48928 20.027 2.01548C21.1244 3.95588 22.246 5.88231 23.3663 7.80938C23.5295 8.0893 23.6075 8.37176 23.6069 8.69675C23.6005 11.6737 23.6031 14.6506 23.6031 17.6275C23.6031 20.063 23.6018 22.4985 23.6044 24.934C23.605 25.4532 23.466 25.916 23.1093 26.3044C22.83 26.6091 22.4644 26.7506 22.0842 26.8681ZM2.52338 8.85036C2.52338 8.95636 2.52338 9.03951 2.52338 9.12266C2.52338 14.3764 2.52338 19.6308 2.52338 24.8845C2.52338 25.2787 2.58812 25.3441 2.97531 25.3441C9.19005 25.3441 15.4048 25.3441 21.6195 25.3441C22.0219 25.3441 22.0816 25.2825 22.0816 24.8686C22.0816 19.6232 22.0816 14.3777 22.0816 9.13218C22.0816 9.04205 22.0816 8.95128 22.0816 8.84972C15.5559 8.85036 9.05739 8.85036 2.52338 8.85036ZM11.5532 2.41092C11.5075 2.40331 11.4751 2.39379 11.4434 2.39379C9.72196 2.39252 8.00055 2.38998 6.27977 2.40013C6.19281 2.40077 6.07348 2.49661 6.0246 2.5804C5.15501 4.07648 4.2943 5.57764 3.43233 7.07816C3.39361 7.14608 3.3606 7.21781 3.32125 7.29524C6.08744 7.29524 8.81746 7.29524 11.5532 7.29524C11.5532 5.65698 11.5532 4.03713 11.5532 2.41092ZM13.1064 2.39252C13.1064 4.04411 13.1064 5.6646 13.1064 7.29524C15.8389 7.29524 18.5563 7.29524 21.292 7.29524C21.2698 7.24256 21.2603 7.21082 21.2438 7.1829C20.3488 5.63223 19.4563 4.08029 18.5518 2.5347C18.5074 2.45853 18.3671 2.3995 18.2713 2.39886C17.0139 2.38934 15.7558 2.39252 14.4977 2.39252C14.0433 2.39252 13.5882 2.39252 13.1064 2.39252Z" fill="white" stroke="white" stroke-width="0.4"/>
<path d="M11.2875 17.9934C11.5877 17.6874 11.8638 17.4031 12.1431 17.1225C12.96 16.3024 13.7788 15.4849 14.5945 14.6642C14.7741 14.4839 14.9702 14.357 15.2375 14.3646C15.8125 14.3817 16.1623 15.0069 15.8652 15.5027C15.8056 15.6023 15.7218 15.6899 15.6386 15.7731C14.4047 17.0121 13.1688 18.2492 11.933 19.4863C11.476 19.9433 11.0869 19.9408 10.6254 19.4793C10.058 18.9119 9.48863 18.3463 8.92561 17.775C8.66855 17.5142 8.61396 17.1612 8.76503 16.8667C8.90657 16.5906 9.21252 16.4027 9.51783 16.47C9.70381 16.5106 9.89677 16.6173 10.037 16.748C10.4579 17.1384 10.8527 17.5561 11.2875 17.9934Z" fill="white" stroke="white" stroke-width="0.4"/>
</svg>
