<svg width="130" height="130" viewBox="0 0 130 130" fill="none" xmlns="http://www.w3.org/2000/svg">
<circle cx="65.1969" cy="64.859" r="64.3717" fill="#212121" fill-opacity="0.15"/>
<circle cx="65.1971" cy="64.8592" r="54.2742" fill="#212121" fill-opacity="0.3"/>
<g filter="url(#filter0_d_11_9697)">
<circle cx="65.3074" cy="64.9686" r="43.0242" fill="#212121"/>
</g>
<path d="M70.6961 88.8402C69.5479 88.5244 69.0072 87.7208 68.6948 86.6037C66.9909 80.5235 65.2385 74.4571 63.515 68.3815C63.4204 68.0484 63.2613 67.8939 62.9305 67.8005C56.8295 66.0701 50.7366 64.3154 44.6322 62.5999C43.5428 62.2944 42.7854 61.7295 42.4775 60.6216C42.4775 60.3057 42.4775 59.9887 42.4775 59.6728C42.8211 58.558 43.6546 58.0588 44.7164 57.706C57.6031 53.4324 70.4817 49.1333 83.3603 44.8355C84.3357 44.5104 85.213 44.6256 85.9485 45.36C86.6829 46.0921 86.8109 46.9706 86.4858 47.9459C82.1348 60.9871 77.7874 74.0294 73.4469 87.0741C73.131 88.0217 72.4958 88.5797 71.5596 88.8402C71.2714 88.8402 70.9844 88.8402 70.6961 88.8402ZM44.9043 60.1628C45.1026 60.232 45.1914 60.2677 45.2836 60.2942C51.3995 62.0443 57.5155 63.7897 63.628 65.5501C63.9312 65.6377 64.0937 65.5547 64.2955 65.3541C69.9652 59.6751 75.6408 54.0007 81.3186 48.3298C81.4293 48.2191 81.578 48.1465 81.7094 48.0566C81.6772 48.0139 81.6449 47.9724 81.6115 47.9298C69.4119 51.9947 57.2134 56.0597 44.9043 60.1628ZM83.3892 49.7167C83.35 49.6867 83.3119 49.6556 83.2727 49.6256C83.1816 49.7501 83.1044 49.8896 82.996 49.998C77.3436 55.6551 71.6911 61.311 66.0282 66.9578C65.7619 67.2229 65.687 67.4396 65.7942 67.8109C67.5269 73.8265 69.2435 79.8456 70.9648 85.8647C71.0097 86.0203 71.0651 86.1725 71.1504 86.4342C75.2569 74.1124 79.323 61.914 83.3892 49.7167Z" fill="white"/>
<defs>
<filter id="filter0_d_11_9697" x="14.2832" y="14.9443" width="102.049" height="102.048" filterUnits="userSpaceOnUse" color-interpolation-filters="sRGB">
<feFlood flood-opacity="0" result="BackgroundImageFix"/>
<feColorMatrix in="SourceAlpha" type="matrix" values="0 0 0 0 0 0 0 0 0 0 0 0 0 0 0 0 0 0 127 0" result="hardAlpha"/>
<feOffset dy="1"/>
<feGaussianBlur stdDeviation="4"/>
<feComposite in2="hardAlpha" operator="out"/>
<feColorMatrix type="matrix" values="0 0 0 0 0.00251736 0 0 0 0 0.0572675 0 0 0 0 0.120833 0 0 0 0.6 0"/>
<feBlend mode="normal" in2="BackgroundImageFix" result="effect1_dropShadow_11_9697"/>
<feBlend mode="normal" in="SourceGraphic" in2="effect1_dropShadow_11_9697" result="shape"/>
</filter>
</defs>
</svg>
