<svg width="26" height="26" viewBox="0 0 26 26" fill="none" xmlns="http://www.w3.org/2000/svg">
<path d="M17.0149 2.09685C18.0357 2.49454 18.9991 3.06021 19.8811 3.77998C19.4142 5.31362 19.5706 6.88363 20.3236 8.20428C21.0776 9.52724 22.3424 10.4444 23.8853 10.7873C23.895 10.7896 23.9046 10.7913 23.9137 10.7936C23.916 10.8063 23.9189 10.8196 23.9211 10.834C24.1173 11.9382 24.1133 13.084 23.9086 14.2436C23.8728 14.2563 23.829 14.2713 23.775 14.2875C23.0846 14.4935 22.074 14.8497 21.2733 15.5567C19.6622 16.9784 19.1145 19.0367 19.7708 21.203C19.7878 21.259 19.8021 21.3086 19.8134 21.3513C19.8077 21.3554 19.8021 21.3594 19.7958 21.3634C19.0645 21.8668 18.2279 22.3643 17.2452 22.8803C16.1732 21.6434 14.6974 20.9369 13.1745 20.9369C11.585 20.9369 10.0609 21.6994 8.98204 23.0322C7.97659 22.6362 7.0371 22.0867 6.18861 21.3987C6.76015 19.8356 6.6538 18.1542 5.89231 16.7747C5.11946 15.3738 3.73241 14.3937 2.08717 14.086C2.06669 14.082 2.04736 14.0785 2.02916 14.0745C2.02632 14.0543 2.02347 14.0323 2.02063 14.0087C1.88244 12.815 1.90632 11.7322 2.09399 10.6995C4.65426 10.2314 6.38082 8.35897 6.60205 5.80944C6.67541 4.96326 6.48888 4.16498 6.34215 3.63799C6.34158 3.63568 6.34102 3.63395 6.34045 3.63222C7.16335 3.111 8.05848 2.60421 9.00706 2.12282C10.0961 3.31475 11.5105 3.96988 13.0022 3.96988C14.5029 3.96758 15.9258 3.30321 17.0149 2.09685ZM12.9823 18.9184C13.0073 18.9184 13.0323 18.9184 13.0573 18.9178C14.7429 18.897 16.3125 18.2177 17.4772 17.0038C18.651 15.7807 19.284 14.153 19.2601 12.419C19.2129 8.99159 16.4155 6.2031 13.0249 6.2031C12.9936 6.2031 12.9623 6.2031 12.9311 6.20368C9.41027 6.25851 6.68792 9.11107 6.73398 12.6978C6.77777 16.1282 9.58088 18.9184 12.9823 18.9184ZM9.11569 0.0546875C8.88423 0.0546875 8.64082 0.115294 8.38491 0.243434C7.27311 0.798708 6.18178 1.40824 5.13595 2.08126C4.33636 2.59555 4.22262 3.23856 4.48195 4.17018C4.61332 4.64175 4.71796 5.15547 4.67644 5.6357C4.52858 7.34193 3.44635 8.45998 1.74197 8.76821C0.792246 8.93964 0.372548 9.36619 0.198527 10.3128C-0.0414632 11.6161 -0.051131 12.9224 0.10128 14.2361C0.23208 15.3668 0.623911 15.8061 1.73742 16.0145C3.99685 16.437 5.18429 18.5871 4.35854 20.7614C4.01903 21.6567 4.17713 22.2697 4.91814 22.8786C5.95771 23.7329 7.10193 24.4042 8.3525 24.8879C8.63798 24.9987 8.89844 25.0547 9.139 25.0547C9.63604 25.0547 10.0512 24.8151 10.4419 24.3193C11.1886 23.3727 12.1804 22.8982 13.1745 22.8982C14.1441 22.8982 15.1154 23.3502 15.8621 24.2564C16.2335 24.7072 16.6555 24.9571 17.1241 24.9571C17.3618 24.9571 17.612 24.8931 17.8736 24.758C18.9058 24.2258 19.9226 23.6463 20.8803 22.9877C21.8659 22.3101 21.9665 21.7727 21.619 20.6258C21.2005 19.2439 21.4689 17.9851 22.542 17.0373C23.0232 16.613 23.6942 16.3573 24.3209 16.1697C25.0653 15.9475 25.6181 15.596 25.7728 14.8C26.0509 13.368 26.0805 11.9267 25.824 10.4854C25.6386 9.44181 25.3048 9.09375 24.2993 8.87037C22.2088 8.40514 21.0873 6.4184 21.7362 4.3341C21.8044 4.11419 21.8465 3.88619 21.8761 3.76613C21.8602 3.11966 21.6298 2.69945 21.2289 2.36352C20.1586 1.46654 18.9809 0.757726 17.6831 0.254978C17.38 0.137805 17.1127 0.0771986 16.8664 0.0771986C16.4024 0.0771986 16.0145 0.292497 15.6096 0.747336C14.8635 1.58602 13.9331 2.00507 13.0016 2.00507C12.061 2.00507 11.1198 1.57736 10.368 0.723671C9.99091 0.294229 9.57576 0.0546875 9.11569 0.0546875ZM12.9823 16.9559C10.6563 16.9559 8.69769 15.0176 8.66755 12.6736C8.6357 10.1841 10.5209 8.20485 12.9606 8.16676C12.9823 8.16618 13.0033 8.16618 13.0249 8.16618C15.3378 8.16618 17.2947 10.1056 17.3271 12.4467C17.3612 14.9322 15.4635 16.9253 13.034 16.9553C13.0164 16.9559 12.9993 16.9559 12.9823 16.9559Z" fill="white"/>
</svg>
