<svg width="129" height="129" viewBox="0 0 129 129" fill="none" xmlns="http://www.w3.org/2000/svg">
<circle cx="64.3717" cy="64.3717" r="64.3717" fill="#BFCADA" fill-opacity="0.15"/>
<circle cx="64.3719" cy="64.3719" r="54.2742" fill="#BAC5D2" fill-opacity="0.3"/>
<g filter="url(#filter0_d_105_320)">
<circle cx="64.4822" cy="64.4813" r="43.0242" fill="white"/>
</g>
<path d="M49.5637 85.3463C49.5637 85.0824 49.5637 84.9178 49.5637 84.7524C49.5637 82.3846 49.5567 80.0173 49.5714 77.6495C49.5733 77.2966 49.4944 77.1669 49.1129 77.1459C46.4144 76.9971 44.0637 74.6159 44.0357 71.9078C43.99 67.5396 44.0167 63.1707 44.0135 58.8019C44.0122 57.1538 44.0593 55.5031 44.0033 53.8563C43.8965 50.7051 46.3839 47.9729 49.8575 48.0002C55.7314 48.0473 61.6059 48.0129 67.4798 48.0129C71.2408 48.0129 75.0025 48.0148 78.7635 48.0123C80.9698 48.011 82.6771 48.9165 83.8298 50.8119C84.3703 51.7008 84.5871 52.687 84.5878 53.719C84.5909 59.638 84.6005 65.557 84.5846 71.4761C84.5757 74.7984 82.1398 77.1777 78.7685 77.1828C73.1197 77.191 67.4709 77.1878 61.8221 77.1789C61.4667 77.1783 61.1799 77.268 60.8881 77.4721C57.2765 79.9976 53.6573 82.513 50.0394 85.0303C49.9141 85.118 49.785 85.2001 49.5637 85.3463ZM51.9488 80.7791C52.1421 80.6551 52.2712 80.5781 52.3939 80.4929C54.983 78.6916 57.5741 76.8928 60.1568 75.0819C60.4353 74.8867 60.7069 74.7952 61.0508 74.7958C66.9534 74.8047 72.8559 74.8047 78.759 74.8009C80.8586 74.7996 82.2053 73.4707 82.2084 71.3763C82.2167 65.5272 82.2205 59.6787 82.1964 53.8296C82.1938 53.2834 82.0832 52.6902 81.8505 52.2012C81.228 50.8914 80.1006 50.3929 78.6789 50.3941C69.0993 50.4043 59.5197 50.3992 49.9402 50.3999C49.785 50.3999 49.6299 50.4018 49.4754 50.4113C47.6956 50.5213 46.4042 51.8089 46.3979 53.5892C46.3775 59.5929 46.3877 65.5971 46.3915 71.6007C46.3922 72.3103 46.6026 72.9608 47.0401 73.5267C47.7274 74.4156 48.6469 74.8136 49.7589 74.8034C50.4724 74.7971 51.1858 74.8022 51.9475 74.8022C51.9488 76.8082 51.9488 78.7571 51.9488 80.7791Z" fill="black"/>
<path d="M54.8926 56.4438C61.1734 56.4438 67.4212 56.4438 73.6918 56.4438C73.6918 57.2208 73.6918 57.9762 73.6918 58.764C67.4377 58.764 61.1798 58.764 54.8926 58.764C54.8926 57.9959 54.8926 57.2202 54.8926 56.4438Z" fill="black"/>
<path d="M73.6831 63.8516C67.4054 63.8516 61.1583 63.8516 54.8857 63.8516C54.8857 63.0791 54.8857 62.3243 54.8857 61.5327C61.138 61.5327 67.394 61.5327 73.6831 61.5327C73.6831 62.2862 73.6831 63.0511 73.6831 63.8516Z" fill="black"/>
<path d="M54.8818 68.921C54.8818 68.1459 54.8818 67.3912 54.8818 66.604C61.1442 66.604 67.4003 66.604 73.6862 66.604C73.6862 67.3676 73.6862 68.1326 73.6862 68.921C67.4193 68.921 61.162 68.921 54.8818 68.921Z" fill="black"/>
<defs>
<filter id="filter0_d_105_320" x="13.458" y="14.457" width="102.049" height="102.048" filterUnits="userSpaceOnUse" color-interpolation-filters="sRGB">
<feFlood flood-opacity="0" result="BackgroundImageFix"/>
<feColorMatrix in="SourceAlpha" type="matrix" values="0 0 0 0 0 0 0 0 0 0 0 0 0 0 0 0 0 0 127 0" result="hardAlpha"/>
<feOffset dy="1"/>
<feGaussianBlur stdDeviation="4"/>
<feComposite in2="hardAlpha" operator="out"/>
<feColorMatrix type="matrix" values="0 0 0 0 0.766667 0 0 0 0 0.766667 0 0 0 0 0.766667 0 0 0 0.6 0"/>
<feBlend mode="normal" in2="BackgroundImageFix" result="effect1_dropShadow_105_320"/>
<feBlend mode="normal" in="SourceGraphic" in2="effect1_dropShadow_105_320" result="shape"/>
</filter>
</defs>
</svg>
