<svg width="129" height="130" viewBox="0 0 129 130" fill="none" xmlns="http://www.w3.org/2000/svg">
<circle cx="64.3717" cy="65.1154" r="64.3717" fill="#0059C0" fill-opacity="0.15"/>
<circle cx="64.3718" cy="65.1155" r="54.2742" fill="#0076FF" fill-opacity="0.3"/>
<g filter="url(#filter0_d_11_9702)">
<circle cx="64.3729" cy="65.1155" r="43.0242" fill="#0076FF"/>
</g>
<path d="M50.8446 45.1406C52.2723 45.4086 53.3007 46.2739 54.2757 47.2363C56.0017 48.9412 57.7892 50.5903 59.4735 52.3331C61.0556 53.971 61.0474 56.1817 59.4897 57.8453C58.4102 58.9986 57.2379 60.0716 56.0876 61.1624C55.8543 61.3835 55.8021 61.5364 55.9495 61.8345C57.0998 64.1502 58.7654 66.1063 60.5657 67.9653C62.4078 69.8678 64.4333 71.5693 66.7153 72.9716C67.3386 73.3546 68.0095 73.6661 68.6503 74.0256C68.8685 74.1484 68.9985 74.1105 69.1703 73.9419C70.1395 72.9929 71.0936 72.0271 72.1104 71.1272C72.6594 70.6415 73.2712 70.1603 73.9444 69.8778C75.6797 69.1476 77.2676 69.5551 78.5955 70.7922C80.5188 72.5853 82.3818 74.4376 84.2935 76.243C86.2714 78.1109 86.4397 80.5873 84.6011 82.4932C83.2465 83.8977 81.8664 85.29 80.3911 86.574C78.8125 87.9484 76.8416 88.2889 74.7639 88.1281C71.5022 87.8758 68.5168 86.7671 65.6242 85.3804C61.3341 83.3227 57.4387 80.7135 54.0122 77.4924C48.862 72.6501 44.7124 67.1536 42.3456 60.5327C41.6887 58.6949 41.2824 56.8136 41.3265 54.8564C41.3671 52.9561 42.0171 51.2948 43.4124 49.9304C44.5661 48.8027 45.7269 47.6807 46.9004 46.5731C47.685 45.8317 48.6264 45.3539 49.7082 45.1406C50.0866 45.1406 50.465 45.1406 50.8446 45.1406ZM75.523 85.9967C76.888 86.0291 78.1451 85.6998 79.1352 84.7798C80.4422 83.5639 81.712 82.3089 82.9436 81.0216C83.8664 80.057 83.8548 78.9985 82.9041 78.0584C80.9448 76.1213 78.9518 74.2165 76.946 72.3241C76.1649 71.5872 75.1713 71.5693 74.2833 72.1934C74.0616 72.3498 73.8596 72.5362 73.6646 72.7227C72.5805 73.7588 71.5045 74.8038 70.4181 75.8377C69.6903 76.531 68.93 76.6516 68.0339 76.2117C67.399 75.9002 66.7641 75.5865 66.1535 75.2348C63.3979 73.6471 60.9906 71.6486 58.8142 69.3888C56.7991 67.2976 54.964 65.0802 53.7371 62.452C53.2032 61.3087 53.3262 60.6879 54.2583 59.8237C55.3273 58.8334 56.394 57.8386 57.4329 56.8181C58.6528 55.619 58.6435 54.6454 57.4526 53.4273C57.4329 53.4072 57.412 53.3871 57.3911 53.367C55.6001 51.6442 53.8149 49.9159 52.0134 48.2032C51.7279 47.9319 51.3971 47.674 51.0372 47.5121C50.046 47.0677 49.2184 47.4574 48.5091 48.1206C47.3612 49.1935 46.2086 50.2665 45.1233 51.3975C44.6497 51.8899 44.2376 52.485 43.9707 53.1024C43.3682 54.4991 43.5273 55.964 43.8279 57.4009C44.4025 60.1397 45.4994 62.7021 46.9236 65.1193C52.0134 73.7565 59.1392 80.2881 68.6294 84.332C70.8243 85.2688 73.1028 85.913 75.523 85.9967Z" fill="white"/>
<defs>
<filter id="filter0_d_11_9702" x="13.3486" y="15.0913" width="102.049" height="102.048" filterUnits="userSpaceOnUse" color-interpolation-filters="sRGB">
<feFlood flood-opacity="0" result="BackgroundImageFix"/>
<feColorMatrix in="SourceAlpha" type="matrix" values="0 0 0 0 0 0 0 0 0 0 0 0 0 0 0 0 0 0 127 0" result="hardAlpha"/>
<feOffset dy="1"/>
<feGaussianBlur stdDeviation="4"/>
<feComposite in2="hardAlpha" operator="out"/>
<feColorMatrix type="matrix" values="0 0 0 0 0 0 0 0 0 0.212092 0 0 0 0 0.458333 0 0 0 0.6 0"/>
<feBlend mode="normal" in2="BackgroundImageFix" result="effect1_dropShadow_11_9702"/>
<feBlend mode="normal" in="SourceGraphic" in2="effect1_dropShadow_11_9702" result="shape"/>
</filter>
</defs>
</svg>
